# xmcd CD database file
# Copyright (C) 1993-1998 Ti Kan
# 
# Track frame offsets:
#     150
#     13747
#     30407
#     48192
#     67860
#     82700
#     99202
#     115805
#     133595
#     147050
#     161280
#     177677
#     192595
#     214365
#     235422
#     250732
#     264062
#     280650
#     300330
# 
# Disc length: 4235 seconds
# 
# Revision: 1
# Processed by: cddbd v1.4b41PL1 Copyright (c) Steve Scherf et al.
# Submitted via: DiscPlay 4.0.4
# 
DISCID=f0108913
DTITLE=Various Artist - Good Times  Vol. II  19 more shag and swing dance fa
DTITLE=vorites
DYEAR=1900
DGENRE=
TTITLE0=Shake Your Moneymaker/Lloyd James
TTITLE1=Hootie Blues/Jay Mc Shann
TTITLE2=Mojo Boogie/Big Mojo Elem
TTITLE3=Two Times Nine/Eddie Clearwater
TTITLE4=Easy Street/Long John Baldry
TTITLE5=Hold On Baby/Mick Martin and His Blues Rockers
TTITLE6=Party Train/Lamont Cranston
TTITLE7=The Blues Will Get You/L.B. Blue
TTITLE8=Tore Up/Clayton Love
TTITLE9=Mama Don't Like/Smiley Lewis
TTITLE10=They Raided The Joint/Long John Baldry
TTITLE11=Just Like A Fish/Amos Garrett
TTITLE12=Hey Little Girl/Joe Turner
TTITLE13=West End Boogie/Sammy Price
TTITLE14=Let The Woman Know/Sydney Joe Qualls
TTITLE15=It Must Have Been The Devil/Big Mojo Elem
TTITLE16=The Great Collapso/The Darts
TTITLE17=The Sun Is Shining/Siegal-Schwall Band
TTITLE18=Jump Sister Bessie/Lloyd Jones
EXTD=
EXTT0=
EXTT1=
EXTT2=
EXTT3=
EXTT4=
EXTT5=
EXTT6=
EXTT7=
EXTT8=
EXTT9=
EXTT10=
EXTT11=
EXTT12=
EXTT13=
EXTT14=
EXTT15=
EXTT16=
EXTT17=
EXTT18=
PLAYORDER=
